# xmcd
#
# Track frame offsets: 
#        150
#        13069
#        31551
#        52254
#        80034
#        104262
#        122638
#        141690
#        157117
#        178112
#        200765
#        219789
#
# Disc length: 3146 seconds
#
# Revision: 0
# Processed by: cddbd v1.5.2PL0 Copyright (c) Steve Scherf et al.
# Submitted via: ExactAudioCopy v1.1
#
DISCID=af0c480c
DTITLE=Bing Futch - Unresolved Blues
DYEAR=2015
DGENRE=Blues
TTITLE0=Sweet Home Chicago
TTITLE1=Interstate 10 Blues
TTITLE2=Juke Joint Hen
TTITLE3=Harperville
TTITLE4=Drinkin' And Drivin' Blues
TTITLE5=Listen Closely Mama
TTITLE6=It's Tight Like That
TTITLE7=Unresolved Blues
TTITLE8=The Flip Side
TTITLE9=John Henry
TTITLE10=That's What You Done to Me
TTITLE11=Red-Headed Lover
EXTD=
EXTT0=
EXTT1=
EXTT2=
EXTT3=
EXTT4=
EXTT5=
EXTT6=
EXTT7=
EXTT8=
EXTT9=
EXTT10=
EXTT11=
PLAYORDER=
